<?xml version="1.0" encoding="utf-8"?>
<!-- Generator: Adobe Illustrator 17.0.0, SVG Export Plug-In . SVG Version: 6.00 Build 0)  -->
<!DOCTYPE svg PUBLIC "-//W3C//DTD SVG 1.1//EN" "http://www.w3.org/Graphics/SVG/1.1/DTD/svg11.dtd">
<svg version="1.1" id="Layer_1" xmlns="http://www.w3.org/2000/svg" xmlns:xlink="http://www.w3.org/1999/xlink" x="0px" y="0px"
	 width="960px" height="960px" viewBox="0 0 960 960" enable-background="new 0 0 960 960" xml:space="preserve">
<g id="Layer_1_1_" display="none">
	<g display="inline">
		<g>
			<path fill="#FEFEFE" d="M954.653,486.935c0,139.004-0.278,278.008,0.384,417.009c0.075,15.779-2.398,21.163-21.634,21.116
				c-296.695-0.728-593.393-0.56-890.091-0.353c-14.818,0.01-23.842,0.972-23.77-19.056c1.008-281.367,1.002-562.739,0.008-844.106
				c-0.07-19.88,8.739-19.14,23.699-19.128c296.697,0.226,593.395,0.383,890.091-0.329c19.079-0.046,21.812,5.124,21.713,21.048
				c-0.736,118.821-0.4,237.649-0.4,356.474c-20.506,1.25-21.521-13.922-24.28-26.213c-10.268-45.737-29.261-88.346-52.094-129.626
				c-21.4-24.455-27.796-23.445-47.514,7.643c-29.755,43.652-36.329,87.862-23.023,140.237
				c19.487,76.703-6.341,145.923-67.724,203.144c31.968-9.893,58.227-27.84,86.201-42.763
				c28.128-15.005,57.327-28.391,83.318-46.668c10.837-7.62,17.146-18.409,23.265-29.438
				C937.208,487.981,942.303,479.217,954.653,486.935z"/>
			<path fill="#252523" d="M882.438,257.865c29.254,41.565,46.453,87.514,58.433,135.595c2.273,9.121-4.575,23.871,13.782,26.149
				c0,2.244,0,4.488,0,6.733c-5.961,15.709-5.961,31.419,0,47.128c0,4.488,0,8.977,0,13.465c-3.301,0.191-8.875-0.637-9.579,0.719
				c-45.89,88.407-150.189,96.358-226.216,153.413c-2.812-25.847,11.092-31.594,19.459-39.722
				c60.887-59.147,82.573-128.403,57.13-206.866c-16.133-49.754,2.391-89.674,29.54-129.34c3.484-3.873,8.059-4.571,13.094-3.934
				c8.289,2.262,15.952,8.199,25.375,3.684C869.69,262.313,873.307,253.492,882.438,257.865z"/>
			<path fill="#E4E4E4" d="M954.653,473.47c-14.503-15.709-13.356-31.419,0-47.128C954.653,442.051,954.653,457.76,954.653,473.47z"
				/>
			<path fill="#262523" d="M535.39,749.078c78.33,6.042,144.984-16.637,197.915-71.066c37.094-38.144,86.659-33.506,134.378-36.019
				c9.234,9.485-0.777,32.217,24.493,30.656c4.911,1.98,8.713,4.465,5.194,10.15c-40.796,72.102-96.776,129.924-177.695,164.8
				c-26.021,11.215-50.38,11.624-75.317-2.757c-55.739-32.146-116.619-56.241-169.321-93.182
				c0.934-18.519,13.597-11.596,24.006-9.561L498.657,742C509.259,751.723,524.269,741.682,535.39,749.078z"/>
			<path fill="#262524" d="M86.366,273.043c42.804-63.686,93.446-119.581,168.601-152.788c29.952-13.234,56.983-13.272,85.672,2.824
				c47.512,26.657,96.213,51.479,143.967,77.774c10.77,5.93,24.603,9.795,29.008,24.882c-10.078,8.262-20.328,2.246-29.701-0.086
				c-90.894-22.618-169.288-3.723-234.962,59.649c-18.71,18.054-39.867,32.805-68.494,34.107c-20.827,4.802-41.87,2.176-62.8,1.599
				c-11.077-9.643-9.207-29.362-28.998-32.361C83.511,283.995,78.786,279.28,86.366,273.043z"/>
			<path fill="#262524" d="M424.076,905.227c-29.44-0.128-56.91-8.694-84.016-17.896c-93.326-31.685-109.927-53.549-110.288-144.458
				c-0.169-42.53,0.111-85.064,0.665-127.591c0.096-7.353-2.373-18.157,7.576-20.38c11.468-2.563,11.991,8.665,13.796,15.603
				c23.945,92.047,86.6,146.604,185.058,168.313c43.983,9.698,66.272,41.898,83.841,77.447c4.808,9.536-5.17,14.514-7.647,21.845
				c-5.29,9.042-6.238,20.222-15.533,27.297C473.014,908.954,448.538,909.153,424.076,905.227z"/>
			<path fill="#262523" d="M744.446,365.094c-12.705,4.749-15.537-1.539-15.001-11.592c-4.927-13.721-3.106-29.737-16.037-40.736
				c-25.322-55.166-67.063-98.543-129.118-112.548c-66.293-14.961-107.762-49.992-135.973-103.974
				c-5.475-16.022,17.206-6.912,17.985-17.541c-8.185-4.744-18.179,6.009-25.917-2.461c0.436-9.462,0.348-19.243,14.393-20.418
				c29.021-5.044,58.049-4.854,87.083-0.1c58.147,9.343,115.29,21.682,164.243,54.499c17.042,11.425,37.591,21.082,39.675,44.445
				C748.733,224.829,751.303,294.987,744.446,365.094z"/>
			<path fill="#232221" d="M187.094,594.654c0.602,1.328,1.365,2.618,1.736,3.999c0.175,0.65-0.404,1.475-0.641,2.221
				c-8.699,32.487-11.935,67.035-40.169,92.167c-2.921,1.286-6.008,2.187-9.166,2.798c-5.981,1.018-12.132,1.426-17.834,3.638
				c-8.175,1.855-10.424,14.754-21.969,10.359c-23.657-34.959-43.607-71.357-50.691-112.753
				c-1.556-21.947-8.418-43.085-10.322-65.122c-4.092-47.356,5.778-87.832,54.417-112.704l-0.198,0.114
				c16.567-6.494,33.047-2.694,48.815,1.845c31.781,9.148,42.089,27.084,30.801,55.929c-7.678,19.62-9.457,37.934,1.293,56.617
				l-0.201-0.465C177.825,553.719,172.303,576.207,187.094,594.654z"/>
			<path fill="#252424" d="M380.835,492.831c23.681,3.734,28.063-17.471,40.332-27.886c13.231-11.232,23.254-25.658,35.741-37.74
				c8.869-8.581,19.027-19.991,33.447-8.615c12.693,10.013,3.689,20.09-2.673,29.607c-15.878,23.751-32.05,47.341-47.384,71.392
				c-6.614,10.374-11.449,21.727-13.651,34.868c43.21-24.643,72.974-59.212,89.781-103.603c1.55-4.093,0.363-9.139,2.131-13.092
				c4.172-9.329,9.466-21.064,21.794-19.259c15.973,2.339,10.238,16.295,7.98,24.716c-15.69,58.515-50.622,105.799-101.105,143.131
				c-11.828,8.747-25.482,12.394-39.862,2.65c-13.275-8.995-17.894-20.193-13.847-35.055c1.665-6.115,5.738-12.627-6.577-27.098
				c-17.556,19.402-33.354,38.789-51.432,56.121c-10.969,10.516-25.707,19.087-40.612,3.908
				c-12.297-12.522-18.781-26.915-5.858-42.232c24.499-29.037,49.908-57.41,74.526-86.362c4.634-5.45,15.184-10.454,7.504-19.426
				c-5.836-6.817-13.855-1.578-19.869,0.754c-23.212,9.003-46.082,18.785-68.928,28.582c-7.684,3.295-15.607,8.449-23.425,2.808
				c-8.273-5.97-4.438-14.567-1.178-21.647c10.622-23.064,23.459-40.855,56.553-40.195c19.728,0.393,40.287-3.15,60.578-2.965
				c31.124,0.284,41.539,15.91,29.937,43.059c-6.548,15.321-24.375,25.492-23.076,44.265c-2.808,3.018-5.844,5.847-8.592,8.915
				C375.92,499.417,378.597,496.278,380.835,492.831z"/>
			<path fill="#262525" d="M731.391,542.189c-43.559,41.773-84.666,71.38-139.201,78.795c-40.82,5.55-67.393-17.37-65.93-52.708
				c2.417-58.376,107.993-159.113,169.941-162.153c40.149-1.97,55.66,15.098,38.365,48.712
				c-17.993,34.971-48.99,60.821-87.438,77.189c-9.47,4.032-21.994,6.555-29.251-4.384c-6.506-9.806,1.607-17.355,8.685-23.046
				c13.519-10.869,24.182-25.376,42.14-30.884c26.651-8.175,35.744-29.321,49.471-51.639
				c-60.99,8.295-142.243,90.452-142.929,140.038c-0.358,25.879,15.076,37.833,41.828,30.389
				c26.76-7.446,49.797-22.057,72.854-36.435C699.129,550.323,706.511,539.998,731.391,542.189z"/>
			<path fill="#252523" d="M173.167,533.761c-22.726-13.806-16.596-34.942-10.813-52.037c11.361-33.588,4.537-48.357-31.996-55.16
				c-12.707-2.366-25.4-4.794-38.099-7.194c37.446-27.955,83.489-42.375,122.803-67.388c10.127-3.631,20.828-6.065,29.702-12.309
				c18.48-3.136,15.945,3.013,5.722,11.67c-27.806,23.543-46.8,52.341-60.574,84.624
				C176.458,467.498,174.328,500.512,173.167,533.761z"/>
			<path fill="#252523" d="M92.456,419.256c-1.271,4.223-1.124,10.822-4.024,12.319c-57.338,29.593-49.413,77.427-41.94,125.614
				c2.033,13.107,1.322,26.582,1.87,39.89C30.618,557.561,31.32,516.444,37.25,475.185C41.566,445.16,63.218,428.67,92.456,419.256z
				"/>
			<path fill="#252523" d="M141.235,689.96c19.692-9.732,26.951-29.362,28.695-45.829c1.843-17.397,8.491-30.187,18.261-43.257
				c12.102,43.516-19.429,73.54-38.455,107.43C134.541,707.137,137.86,698.559,141.235,689.96z"/>
			<path fill="#403F3E" d="M744.446,365.094c0.444-70.14,0.888-140.28,1.333-210.423
				C754.103,224.858,757.559,295.022,744.446,365.094z"/>
			<path fill="#707070" d="M86.366,273.043c1.461,4.672,0.457,10.519,7.032,12.756c3.959,10.567,12.091,18.247,20.578,25.68
				c20.441,15.093,45.014,0.255,66.48,7.928c-24.328,9.185-49.803,5.142-74.781,4.86c-13.165-0.148-27.278-2.993-32.298-17.226
				C68.433,293.02,72.433,281.205,86.366,273.043z"/>
			<path fill="#444442" d="M505.502,870.59c5.068-4.775,10.136-9.55,15.205-14.325c27.307,47.262,21.609,57.321-33.713,56.258
				c-21.072-0.405-42.926,2.261-62.917-7.297c24.373-6.356,51.28,7.573,74.498-8.039
				C515.417,891.592,516.072,882.354,505.502,870.59z"/>
			<path fill="#C5C5C5" d="M890.753,676.525c-31.156,6.227-32.729,3.872-23.07-34.532c11.387-6.118,20.747-2.819,29.046,5.403
				C898.235,657.726,901.433,668.355,890.753,676.525z"/>
			<path fill="#C1C0C0" d="M440.385,76.243c6.655,0.201,10.574-3.618,14.303-8.056c6.389-7.603,13.763-7.096,21.465-1.722
				c6.182,4.314,9.593,9.947,6.919,17.026c-2.995,7.928-9.008,12.924-18.74,11.347c-5.617-0.91-11.159-4.068-16.015,1.407
				C439.41,91.723,434.108,85.967,440.385,76.243z"/>
			<path fill="#6D6D6D" d="M882.438,257.865c-4.861,4.57-9.721,9.139-14.581,13.709c-9.102-6.003-18.383-11.265-30.136-6.284
				c-4.244-0.05-8.487-0.1-12.731-0.151C848.015,226.719,860.367,225.155,882.438,257.865z"/>
			<path fill="#717171" d="M99.052,709.835c9.626-3.405,4.9-17.69,16.918-19.282c6.449,7.391,10.728,16.845,21.852,19.805
				c2.615,1.558,4.853,3.481,6.748,5.748C124.944,741.939,110.777,733.543,99.052,709.835z"/>
			<path fill="#252523" d="M187.094,594.654c-26.267-16.162-15.933-39.608-14.13-61.357
				C179.76,553.334,186.662,573.351,187.094,594.654z"/>
			<path fill="#C1C0C0" d="M541.862,55.724c-29.028,0.033-58.056,0.067-87.083,0.1C483.79,44.008,512.82,45.657,541.862,55.724z"/>
			<path fill="#403F3E" d="M713.409,312.766c18.546,9.089,17.65,24.791,16.037,40.736
				C724.1,339.923,718.754,326.345,713.409,312.766z"/>
			<path fill="#6E6D6C" d="M890.753,676.525c1.992-9.709,3.984-19.418,5.976-29.128c15.621,11.559,11.793,23.423,0.64,35.402
				C895.164,680.708,892.959,678.616,890.753,676.525z"/>
			<path fill="#454444" d="M499.043,742.098c-8.418,2.284-18.969-0.056-24.006,9.561c-5.715-1.914-12.413-6.648-8.551-10.972
				C476.823,729.114,488.311,737.081,499.043,742.098z"/>
			<path fill="#363534" d="M244.763,339.673c-6.298,11.613-17.038,13.967-29.702,12.309
				C223.78,345.417,232.194,338.215,244.763,339.673z"/>
			<path fill="#818181" d="M144.57,716.106c-3.181-0.27-6.361-0.54-9.542-0.81c-6.356-8.076-7.235-16.214-0.325-24.442
				c2.096-0.832,4.278-1.132,6.537-0.897c2.827,6.118,5.66,12.232,8.493,18.347C148.013,710.904,146.292,713.505,144.57,716.106z"/>
			<path fill="#454444" d="M535.39,749.078c-12.925,0.694-26.668,5.054-36.733-7.079
				C511.552,741.444,524.082,742.523,535.39,749.078z"/>
			<path fill="#DCDCDC" d="M837.72,265.29c2.772-9.173,7.445-16.956,19.446-14.789c12.959,2.341,10.94,12.346,10.69,21.073
				C854.771,282.071,845.088,278.473,837.72,265.29z"/>
			<path fill="#D0D0D0" d="M113.977,311.478c-24.448,3.616-31.716-4.661-20.578-25.68
				C116.694,282.981,124.376,290.971,113.977,311.478z"/>
			<path fill="#B8B8B8" d="M505.502,870.59c11.684,1.524,26.452,1.285,23.178,17.693c-3.597,18.027-17.093,14.462-30.105,8.905
				C493.92,886.755,496.875,878.035,505.502,870.59z"/>
			<path fill="#E2E2E2" d="M134.704,690.853c3.108,8.113,4.336,16.248,0.326,24.443c-23.041,2.855-24.914-8.374-19.06-24.744
				C122.215,690.653,128.459,690.753,134.704,690.853z"/>
			<path fill="#FAFAFA" d="M380.835,492.831c7.246,19.889-12.984,20.307-21.044,29.318c-1.913-16.417,4.138-26.94,21.897-28.616
				C381.66,493.518,380.835,492.831,380.835,492.831z"/>
		</g>
	</g>
</g>
<g id="Layer_2" display="none">
	<g display="inline">
		<g>
			<path fill="#FEFEFE" d="M377.187,617.901c-14.977,0-29.955-0.039-44.931,0.051c-1.835,0.011-2.368-0.372-2.367-2.623
				c0.064-75.549,0.083-151.099-0.037-226.648c-0.006-3.685,1.713-2.771,3.365-2.771c124.133-0.009,248.266-0.008,372.399-0.008
				c0.182,0.189,0.37,0.385,0.596,0.483c0.388,0.169,0.647,0.735,1.166,0.501c-0.377-0.234-0.498-0.55-0.238-0.985
				c2.609-0.657,3.125,0.5,3.121,3.476c-0.093,75.016-0.093,150.032,0,225.048c0.004,2.975-0.512,3.561-3.121,3.558
				c-105.666-0.097-211.332-0.082-316.999-0.082c-0.248-0.479-0.183-0.895,0.191-1.25c5.769-1.905,11.862-1.941,17.619-3.961
				c1.548-0.543,3.14-0.943,4.681-1.527c12.272-0.87,23.709-4.726,34.038-12.483c5.521-4.147,10.904-8.545,15.609-13.847
				c20.778-23.417,44.268-42.016,72.111-52.831c14.481-5.625,29.364-8.806,44.679-10.088c22.963-1.922,45.295,1.742,67.44,8.039
				c3.323,0.945,6.522,2.398,9.928,3.026c3.307,0.61,7.053,0.518,8.689-2.643c1.667-3.22-1.519-6.003-3.332-8.428
				c-2.155-2.882-5.048-4.807-7.982-6.582c-36.329-21.985-72.618-44.057-108.772-66.416c-5.578-3.45-10.959-7.318-16.777-10.254
				c-19.403-9.792-38.536-8.007-57.547,1.616c-24.585,12.445-46.9,28.972-66.772,49.523c-15.243,15.763-29.215,32.998-41.652,51.781
				c-6.887,10.401-13.513,21.009-20.029,31.716c-2.939,2.506-5.941,4.888-7.937,8.58c-5.483,10.139-1.783,27.374,10.719,31.243
				c4.182,1.294,8.405,2.02,12.761,1.897c6.445-0.183,12.864,0.263,19.214,1.655C377.384,617.025,377.438,617.437,377.187,617.901z"
				/>
			<path fill="#EDEDED" d="M377.187,617.901c-0.001-0.244-0.007-0.488-0.017-0.732c4.33-2.38,8.659-2.38,12.989,0
				c-0.01,0.244-0.016,0.488-0.017,0.732C385.824,617.901,381.505,617.901,377.187,617.901z"/>
			<path fill="#ECEBEB" d="M707.14,385.902c0.536,0.481,1.073,0.961,1.672,1.499c-1.519,0.531-2.549,0.031-3.196-1.499
				C706.124,385.902,706.632,385.902,707.14,385.902z"/>
			<path fill="#262524" d="M341.963,572.519c8.398-15.347,17.983-29.714,28.06-43.646c23.121-31.964,49.701-59.337,81.842-79.187
				c11.016-6.803,22.172-13.353,34.461-16.695c17.032-4.632,33.215-1.673,48.408,8.05c36.96,23.653,74.746,45.561,111.845,68.922
				c4.75,2.991,9.909,5.126,14.142,9.19c2.274,2.184,3.885,4.842,5.447,7.681c1.935,3.518,0.592,5.062-2.172,6.366
				c-4.147,1.958-8.158,1.117-12.237-0.3c-19.754-6.859-40.026-10.375-60.615-10.362c-38.831,0.025-73.853,13.503-104.994,40.112
				c-10.184,8.702-19.062,19.058-28.731,28.401c-10.917,10.549-23.146,18.092-37.528,20.367c-2.251,0.356-4.548,0.331-6.823,0.481
				c-11.623-1.403-23.225,0.746-34.834,0.276c-5.609-0.227-11.085-1.334-15.1-6.559c-0.548-2.296,0.504-4.222,1.157-6.231
				c3.147-9.684,0.032-15.224-8.962-15.877c-1.901-0.138-3.806-0.003-5.713-0.023C343.604,582.914,341.432,579.796,341.963,572.519z
				"/>
			<path fill="#707070" d="M341.963,572.519c0.291,0.928,0.687,1.833,0.857,2.789c1.059,5.969,1.823,6.768,7.026,7.125
				c-3.311,3.779-5.142,8.29-5.162,13.678c-0.018,4.879,1.803,7.394,6.06,8.304c2.86,0.611,5.731,0.634,8.631,0.234
				c1.337-0.184,2.748-0.572,4.077,0.198c3.932,4.414,8.939,5.672,14.166,6.153c8.749,0.805,17.426-1.271,26.172-0.944
				c3.186,0.119,6.294,0.514,9.277,1.844c-7.29,3.715-15.138,4.275-22.909,5.269c-4.329,0-8.659,0-12.989,0
				c-9.428-1.239-18.975-0.193-28.375-1.809c-14.809-2.546-22.513-19.177-15.541-33.523
				C335.256,577.717,338.31,574.715,341.963,572.519z"/>
			<path fill="#CFCFCF" d="M363.452,604.847c-4.651,1.75-9.403,1.739-14.069,0.436c-4.341-1.212-5.778-3.915-5.828-9.152
				c-0.038-4.026,1.49-7.484,2.66-11.114c0.686-2.127,2.531-1.547,3.631-2.584c3.029,0.096,6.06-0.264,9.082,0.508
				c6.237,1.594,8.787,5.817,7.317,12.971C365.616,598.971,364.401,601.873,363.452,604.847z"/>
		</g>
	</g>
	<path display="inline" fill="none" d="M525,435.5c0,0-44.18-26-120,51"/>
</g>
<g id="Layer_3" display="none">
	<g display="inline">
		<path fill="#262525" d="M87.489,598.698c0,0,13.276-123.203,74.016-179.979c33.129-32.146,123.815-3.942,147.156-0.908
			c21.804,2.834,49.717,7.297,49.717,7.297s14.683,5.894,11.492,9.27c-2.779,5.644-20.582,7.164-46.96,12.156
			c-94.527,26.736-111.533,94.639-113.743,100.993s-15.86,53.86-41.304,59.137c0,0-16.216,5.294-22.411,9.91
			c-5.919,4.626-23.9,6.583-25.083,3.555c-0.629-4.075,0.181-26.655-21.822-15.774C93.992,606.424,86.372,602.686,87.489,598.698z"
			/>
		<path fill="#606060" d="M167.24,606.796c0.577,6.403-14.381,19.329-57.783,27.774c-35.089,6.123-21.968-35.872-21.968-35.872
			s0.147,4.532,4.531,5.583c4.61,1.105,3.679-0.294,6.22,0.197c0.11,0.021-1.133,0.752-1.765,3.549
			c-0.632,2.797-0.067,6.718,0.877,9.395s3.536,10.988,10.886,8.259s10.402-1.239,11.636-5.436
			c1.563-5.313-2.776,3.035,14.823,0.391c11.647-2.585,12.649-6.328,13.395-6.289C156.668,609.065,167.08,605.018,167.24,606.796z"
			/>
	</g>
</g>
<g id="Layer_4" display="none">
	<g display="inline">
		<path fill="#262525" d="M189.826,359.234c0,0,53.491-73.141,115.444-88.045c34.216-8.873,85.98,40.133,100.826,50.08
			c13.869,9.293,31.323,21.716,31.323,21.716s7.903,8.772,4.506,9.803c-3.933,2.603-16.64-2.566-36.454-8.497
			c-74.197-15.674-110.295,21.303-114.095,24.55c-3.8,3.247-30.252,28.513-49.532,23.083c0,0-12.983-2.242-18.879-1.463
			c-5.711,0.881-18.696-4.074-18.412-6.392c1.04-2.787,9.735-16.75-9.215-17.461C191.481,366.345,187.625,361.365,189.826,359.234z"
			/>
		<path fill="#606060" d="M241.371,391.793c-1.915,4.237-16.791,7.242-49.477-2.371c-26.172-8.216-2.068-30.188-2.068-30.188
			s-1.534,2.909,1.081,5.081c2.75,2.284,2.618,1.081,4.177,2.265c0.068,0.051-1.045,0.084-2.485,1.631s-2.469,4.214-2.788,6.228
			s-1.547,8.148,4.457,8.957c6.004,0.808,7.55,2.799,9.907,0.576c2.983-2.813-2.99,0.959,9.982,5.349
			c8.886,2.379,10.92,0.362,11.416,0.644C233.333,389.585,241.903,390.616,241.371,391.793z"/>
	</g>
	<g display="inline">
		<path fill="#262525" d="M256.858,618.973c0,0-13.895-89.542,19.374-143.889c17.92-30.468,89.175-32.419,106.707-35.883
			c16.378-3.236,37.504-6.793,37.504-6.793s11.79,0.615,10.118,3.745c-0.94,4.622-13.58,9.952-31.785,19.768
			c-63.548,41.382-62.927,93.054-63.318,98.037s-1.23,41.554-18.702,51.347c0,0-10.766,7.595-14.384,12.314
			c-3.415,4.661-16.101,10.339-17.539,8.5c-1.235-2.706-4.961-18.728-18.863-5.831C263.058,622.831,256.809,622.036,256.858,618.973
			z"/>
		<path fill="#606060" d="M316.33,605.548c1.642,4.35-6.752,16.994-36.662,33.309c-24.316,12.697-22.809-19.884-22.809-19.884
			s0.973,3.142,4.358,2.828c3.559-0.33,2.616-1.087,4.555-1.352c0.084-0.011-0.68,0.799-0.604,2.911
			c0.075,2.112,1.234,4.725,2.432,6.375s4.668,6.856,9.485,3.182s7.318-3.36,7.413-6.598c0.12-4.098-1.436,2.793,10.841-3.276
			c7.965-4.601,7.978-7.466,8.527-7.617C309.084,609.67,315.874,604.34,316.33,605.548z"/>
	</g>
	<g display="inline">
		<path fill="#262525" d="M487.921,755.237c0,0-73.141-53.491-88.045-115.444c-8.873-34.216,40.133-85.98,50.08-100.826
			c9.293-13.869,21.716-31.323,21.716-31.323s8.772-7.903,9.803-4.506c2.603,3.933-2.566,16.64-8.497,36.454
			c-15.674,74.197,21.303,110.295,24.55,114.095s28.513,30.252,23.083,49.532c0,0-2.242,12.983-1.463,18.879
			c0.88,5.711-4.074,18.696-6.392,18.412c-2.787-1.04-16.75-9.735-17.461,9.215C495.033,753.581,490.052,757.438,487.921,755.237z"
			/>
		<path fill="#606060" d="M520.481,703.691c4.237,1.915,7.242,16.791-2.371,49.477c-8.216,26.172-30.188,2.068-30.188,2.068
			s2.909,1.534,5.081-1.081c2.284-2.75,1.081-2.618,2.265-4.177c0.051-0.068,0.084,1.045,1.631,2.485s4.214,2.469,6.228,2.788
			c2.013,0.32,8.148,1.547,8.957-4.457c0.808-6.004,2.799-7.55,0.576-9.907c-2.813-2.983,0.959,2.99,5.349-9.982
			c2.379-8.886,0.362-10.92,0.644-11.416C518.272,711.73,519.304,703.16,520.481,703.691z"/>
	</g>
	<g display="inline">
		<path fill="#262525" d="M747.66,688.204c0,0-89.542,13.895-143.889-19.374c-30.468-17.92-32.419-89.175-35.883-106.707
			c-3.236-16.378-6.793-37.504-6.793-37.504s0.615-11.79,3.745-10.118c4.622,0.94,9.952,13.58,19.768,31.785
			c41.382,63.548,93.054,62.927,98.037,63.318s41.554,1.23,51.347,18.702c0,0,7.595,10.766,12.314,14.384
			c4.661,3.416,10.339,16.101,8.5,17.539c-2.706,1.235-18.728,4.961-5.831,18.863C751.518,682.005,750.724,688.254,747.66,688.204z"
			/>
		<path fill="#606060" d="M734.235,628.733c4.35-1.642,16.994,6.752,33.309,36.662c12.697,24.315-19.884,22.809-19.884,22.809
			s3.142-0.973,2.828-4.358c-0.33-3.559-1.087-2.616-1.352-4.555c-0.011-0.084,0.799,0.68,2.911,0.604s4.725-1.234,6.375-2.432
			c1.65-1.197,6.856-4.668,3.182-9.485c-3.674-4.817-3.36-7.318-6.598-7.413c-4.098-0.12,2.793,1.436-3.276-10.841
			c-4.601-7.965-7.466-7.978-7.617-8.527C738.358,635.978,733.027,629.189,734.235,628.733z"/>
	</g>
	<g display="inline">
		<path fill="#262525" d="M883.924,457.141c0,0-53.491,73.141-115.444,88.045c-34.216,8.873-85.98-40.133-100.826-50.08
			c-13.869-9.293-31.323-21.716-31.323-21.716s-7.903-8.772-4.506-9.803c3.933-2.603,16.64,2.566,36.454,8.497
			c74.197,15.674,110.295-21.303,114.095-24.55s30.252-28.513,49.532-23.083c0,0,12.983,2.242,18.879,1.463
			c5.711-0.881,18.696,4.074,18.412,6.392c-1.04,2.787-9.735,16.75,9.215,17.461C882.269,450.03,886.125,455.01,883.924,457.141z"/>
		<path fill="#606060" d="M832.379,424.582c1.915-4.237,16.791-7.242,49.477,2.371c26.172,8.216,2.068,30.188,2.068,30.188
			s1.534-2.909-1.081-5.081c-2.75-2.284-2.618-1.081-4.177-2.265c-0.068-0.051,1.045-0.084,2.485-1.631s2.469-4.214,2.788-6.228
			c0.32-2.013,1.547-8.148-4.457-8.957s-7.55-2.799-9.907-0.576c-2.983,2.813,2.99-0.959-9.982-5.349
			c-8.886-2.379-10.92-0.362-11.416-0.644C840.417,426.79,831.847,425.759,832.379,424.582z"/>
	</g>
	<g display="inline">
		<path fill="#262525" d="M816.892,197.402c0,0,13.895,89.542-19.374,143.889c-17.92,30.468-89.175,32.419-106.707,35.883
			c-16.378,3.236-37.504,6.793-37.504,6.793s-11.79-0.615-10.118-3.745c0.94-4.622,13.58-9.952,31.785-19.768
			c63.548-41.382,62.927-93.054,63.318-98.037c0.391-4.983,1.23-41.554,18.702-51.347c0,0,10.766-7.595,14.384-12.314
			c3.416-4.661,16.101-10.339,17.539-8.5c1.235,2.706,4.961,18.728,18.863,5.831C810.692,193.544,816.941,194.339,816.892,197.402z"
			/>
		<path fill="#606060" d="M757.42,210.827c-1.642-4.35,6.752-16.994,36.662-33.309c24.315-12.697,22.809,19.884,22.809,19.884
			s-0.973-3.142-4.358-2.828c-3.559,0.33-2.616,1.087-4.555,1.352c-0.084,0.011,0.68-0.799,0.604-2.911s-1.234-4.725-2.432-6.375
			c-1.197-1.65-4.668-6.856-9.485-3.182c-4.817,3.674-7.318,3.36-7.413,6.598c-0.12,4.098,1.436-2.793-10.841,3.276
			c-7.965,4.601-7.978,7.466-8.527,7.617C764.666,206.705,757.876,212.035,757.42,210.827z"/>
	</g>
	<g display="inline">
		<path fill="#262525" d="M585.829,61.138c0,0,73.141,53.491,88.045,115.444c8.873,34.216-40.133,85.98-50.08,100.826
			c-9.293,13.869-21.716,31.323-21.716,31.323s-8.772,7.903-9.803,4.506c-2.603-3.933,2.566-16.64,8.497-36.454
			c15.674-74.197-21.303-110.295-24.55-114.095s-28.513-30.252-23.083-49.532c0,0,2.242-12.983,1.463-18.879
			c-0.88-5.711,4.074-18.696,6.392-18.412c2.787,1.04,16.75,9.735,17.461-9.215C578.717,62.794,583.698,58.937,585.829,61.138z"/>
		<path fill="#606060" d="M553.269,112.684c-4.237-1.915-7.242-16.791,2.371-49.477c8.216-26.172,30.188-2.068,30.188-2.068
			s-2.909-1.534-5.081,1.081c-2.284,2.75-1.081,2.618-2.265,4.177c-0.051,0.068-0.084-1.045-1.631-2.485
			c-1.547-1.44-4.214-2.469-6.228-2.788c-2.013-0.32-8.148-1.547-8.957,4.457s-2.799,7.55-0.576,9.907
			c2.813,2.983-0.959-2.99-5.349,9.982c-2.379,8.886-0.362,10.92-0.644,11.416C555.478,104.645,554.446,113.215,553.269,112.684z"/>
	</g>
	<g display="inline">
		<path fill="#262525" d="M326.09,128.171c0,0,89.542-13.895,143.889,19.374c30.468,17.92,32.419,89.175,35.883,106.707
			c3.236,16.378,6.793,37.504,6.793,37.504s-0.615,11.79-3.745,10.118c-4.622-0.94-9.952-13.58-19.768-31.785
			c-41.382-63.548-93.054-62.927-98.037-63.318s-41.554-1.23-51.347-18.702c0,0-7.595-10.766-12.314-14.384
			c-4.661-3.415-10.339-16.101-8.5-17.539c2.706-1.235,18.728-4.961,5.831-18.863C322.232,134.37,323.026,128.121,326.09,128.171z"
			/>
		<path fill="#606060" d="M339.515,187.642c-4.35,1.642-16.994-6.752-33.309-36.662c-12.697-24.316,19.884-22.809,19.884-22.809
			s-3.142,0.973-2.828,4.358c0.33,3.559,1.087,2.616,1.352,4.555c0.011,0.084-0.799-0.68-2.911-0.604s-4.725,1.234-6.375,2.432
			c-1.65,1.198-6.856,4.668-3.182,9.485c3.674,4.817,3.36,7.318,6.598,7.413c4.098,0.12-2.793-1.436,3.276,10.841
			c4.601,7.965,7.466,7.978,7.617,8.527C335.392,180.397,340.723,187.186,339.515,187.642z"/>
	</g>
</g>
<g id="Layer_5">
	<g>
		<path fill="#262525" d="M48.392,262.847c0,0,89.767-98.864,186.779-113.02c53.642-8.741,128.573,67.776,150.473,83.816
			c20.458,14.985,46.132,34.891,46.132,34.891s11.31,13.536,5.971,14.619c-6.324,3.281-25.401-5.64-55.361-16.49
			c-112.843-31.233-172.189,17.684-178.371,21.905c-6.182,4.222-49.488,37.438-78.675,27.372c0,0-19.796-4.746-28.963-4.318
			c-8.893,0.596-28.422-8.05-27.753-11.347c1.882-3.884,16.679-22.935-12.468-26.18C50.236,273.264,44.786,265.651,48.392,262.847z"
			/>
		<path fill="#606060" d="M124.625,315.696c-3.374,5.866-26.612,8.44-76.052-9.213c-39.536-14.879-0.181-43.638-0.181-43.638
			s-2.655,4.002,1.161,7.431c4.012,3.604,3.93,1.86,6.215,3.747c0.099,0.082-1.619-0.002-3.995,2.053
			c-2.374,2.054-4.227,5.769-4.92,8.625c-0.693,2.856-3.197,11.532,5.98,13.397c9.177,1.867,11.363,4.908,15.217,1.991
			c4.879-3.694-4.707,1.029,14.859,8.861c13.464,4.462,16.803,1.802,17.537,2.264C112.45,311.579,125.562,314.067,124.625,315.696z"
			/>
	</g>
	<g>
		<path fill="#262525" d="M13.724,626.516c0,0-7.868-132.104,50.514-209.333c31.623-43.347,139.823-41.16,166.885-44.993
			c25.28-3.579,57.799-7.294,57.799-7.294s17.766,1.735,14.773,6.2c-2.104,6.702-22.031,13.612-51.047,26.699
			c-102.331,56.1-108.995,131.809-110.32,139.078c-1.324,7.269-7.978,60.762-35.879,73.867c0,0-17.423,10.36-23.596,17.015
			c-5.858,6.583-25.907,14-27.813,11.205c-1.473-4.049-4.758-27.775-27.708-9.873C22.546,632.606,13.199,630.999,13.724,626.516z"/>
		<path fill="#606060" d="M105.767,611.067c1.846,6.487-12.727,24.407-60.426,46.18c-38.693,16.871-31.617-30.731-31.617-30.731
			s1.011,4.669,6.184,4.45c5.438-0.231,4.122-1.407,7.098-1.656c0.13-0.011-1.147,1.121-1.343,4.22
			c-0.196,3.098,1.175,7.008,2.745,9.508c1.571,2.5,6.06,10.369,13.896,5.33s11.577-4.402,12.198-9.136
			c0.784-5.993-2.586,3.987,16.9-4.03c12.74-6.174,13.181-10.367,14.035-10.55C94.188,616.591,105.254,609.267,105.767,611.067z"/>
	</g>
	<g>
		<path fill="#262525" d="M251.645,907.69c0,0-100.894-87.961-115.341-183.02c-8.921-52.562,69.168-125.986,85.538-147.445
			c15.293-20.046,35.607-45.203,35.607-45.203s13.814-11.083,14.919-5.851c3.348,6.197-5.756,24.889-16.829,54.247
			c-31.875,110.572,18.047,168.723,22.355,174.781c4.308,6.058,38.207,48.492,27.934,77.091c0,0-4.844,19.397-4.407,28.38
			c0.608,8.714-8.215,27.85-11.58,27.195c-3.964-1.844-23.406-16.343-26.717,12.217C262.276,905.884,254.507,911.224,251.645,907.69
			z"/>
		<path fill="#606060" d="M305.58,832.992c5.986,3.306,8.614,26.077-9.402,74.522c-15.185,38.74-44.534,0.177-44.534,0.177
			s4.084,2.602,7.584-1.137c3.678-3.931,1.899-3.851,3.824-6.09c0.083-0.097-0.002,1.587,2.095,3.915
			c2.096,2.326,5.887,4.141,8.802,4.821c2.916,0.679,11.769,3.133,13.672-5.86c1.903-8.992,5.009-11.134,2.031-14.911
			c-3.77-4.781,1.05,4.612,9.043-14.56c4.554-13.193,1.839-16.464,2.311-17.184C301.378,844.922,303.918,832.074,305.58,832.992z"/>
	</g>
	<g>
		<path fill="#262525" d="M622.783,941.661c0,0-134.817,7.708-213.632-49.498c-44.238-30.987-42.006-137.009-45.917-163.526
			c-3.652-24.771-7.443-56.635-7.443-56.635s1.771-17.408,6.327-14.475c6.84,2.062,13.891,21.587,27.247,50.019
			c57.252,100.272,134.516,106.802,141.935,108.099c7.419,1.298,62.01,7.817,75.384,35.157c0,0,10.572,17.072,17.365,23.121
			c6.718,5.74,14.288,25.386,11.435,27.254c-4.132,1.443-28.346,4.662-10.075,27.151
			C628.998,933.017,627.359,942.176,622.783,941.661z"/>
		<path fill="#606060" d="M607.017,851.471c6.621-1.809,24.908,12.471,47.129,59.21c17.218,37.914-31.362,30.981-31.362,30.981
			s4.765-0.991,4.541-6.059c-0.236-5.329-1.436-4.039-1.69-6.955c-0.011-0.127,1.144,1.124,4.307,1.316
			c3.161,0.192,7.152-1.151,9.703-2.689c2.552-1.54,10.582-5.938,5.44-13.616c-5.142-7.678-4.492-11.344-9.324-11.952
			c-6.116-0.768,4.069,2.534-4.112-16.56c-6.301-12.483-10.58-12.916-10.767-13.752C612.654,862.817,605.18,851.973,607.017,851.471
			z"/>
	</g>
	<g>
		<path fill="#262525" d="M909.733,708.528c0,0-89.767,98.864-186.779,113.02c-53.642,8.741-128.573-67.776-150.473-83.816
			c-20.458-14.985-46.132-34.891-46.132-34.891s-11.31-13.536-5.971-14.619c6.324-3.281,25.401,5.64,55.361,16.49
			c112.843,31.233,172.189-17.684,178.371-21.905c6.182-4.222,49.488-37.438,78.675-27.372c0,0,19.796,4.747,28.963,4.318
			c8.893-0.596,28.422,8.05,27.753,11.347c-1.882,3.884-16.679,22.935,12.468,26.18
			C907.889,698.111,913.339,705.724,909.733,708.528z"/>
		<path fill="#606060" d="M833.5,655.679c3.374-5.866,26.612-8.44,76.052,9.213c39.536,14.879,0.181,43.638,0.181,43.638
			s2.655-4.002-1.161-7.431c-4.012-3.604-3.93-1.86-6.215-3.747c-0.099-0.082,1.619,0.002,3.995-2.053
			c2.376-2.054,4.227-5.769,4.92-8.625c0.693-2.857,3.197-11.532-5.98-13.397c-9.177-1.867-11.363-4.908-15.217-1.991
			c-4.88,3.694,4.707-1.029-14.859-8.861c-13.464-4.462-16.803-1.801-17.537-2.264C845.674,659.796,832.563,657.307,833.5,655.679z"
			/>
	</g>
	<g>
		<path fill="#262525" d="M944.401,344.859c0,0,7.866,132.104-50.514,209.333c-31.623,43.347-139.823,41.16-166.885,44.993
			c-25.28,3.579-57.799,7.294-57.799,7.294s-17.766-1.735-14.773-6.2c2.104-6.702,22.031-13.612,51.047-26.698
			c102.331-56.1,108.995-131.809,110.319-139.078c1.324-7.269,7.978-60.762,35.879-73.867c0,0,17.423-10.36,23.596-17.015
			c5.858-6.583,25.907-14,27.813-11.205c1.473,4.049,4.757,27.775,27.708,9.873C935.579,338.769,944.926,340.376,944.401,344.859z"
			/>
		<path fill="#606060" d="M852.359,360.308c-1.846-6.487,12.727-24.407,60.426-46.181c38.693-16.871,31.617,30.731,31.617,30.731
			s-1.011-4.669-6.184-4.45c-5.438,0.231-4.121,1.407-7.098,1.656c-0.13,0.011,1.147-1.121,1.343-4.219
			c0.196-3.098-1.175-7.008-2.745-9.508c-1.571-2.5-6.06-10.369-13.896-5.33c-7.836,5.038-11.577,4.402-12.198,9.136
			c-0.784,5.993,2.586-3.987-16.9,4.03c-12.74,6.174-13.181,10.367-14.035,10.55C863.937,354.785,852.871,362.108,852.359,360.308z"
			/>
	</g>
	<g>
		<path fill="#262525" d="M706.48,63.684c0,0,100.894,87.961,115.341,183.02c8.921,52.562-69.168,125.986-85.538,147.445
			c-15.293,20.046-35.607,45.203-35.607,45.203s-13.814,11.083-14.919,5.851c-3.348-6.197,5.756-24.889,16.829-54.247
			c31.875-110.572-18.047-168.723-22.355-174.781c-4.308-6.058-38.207-48.492-27.934-77.092c0,0,4.844-19.397,4.407-28.38
			c-0.608-8.714,8.215-27.85,11.58-27.195c3.964,1.844,23.406,16.343,26.717-12.217C695.849,65.491,703.618,60.151,706.48,63.684z"
			/>
		<path fill="#606060" d="M652.545,138.383c-5.986-3.307-8.614-26.077,9.402-74.522c15.185-38.74,44.534-0.177,44.534-0.177
			s-4.084-2.602-7.584,1.137c-3.679,3.931-1.899,3.851-3.824,6.09c-0.083,0.097,0.002-1.587-2.095-3.915
			c-2.096-2.326-5.887-4.141-8.802-4.821c-2.914-0.679-11.769-3.133-13.672,5.86c-1.905,8.992-5.009,11.134-2.031,14.911
			c3.77,4.781-1.05-4.612-9.043,14.56c-4.554,13.193-1.838,16.464-2.311,17.184C656.747,126.453,654.207,139.301,652.545,138.383z"
			/>
	</g>
	<g>
		<path fill="#262525" d="M335.342,29.714c0,0,134.817-7.71,213.632,49.498c44.239,30.987,42.006,137.009,45.917,163.526
			c3.652,24.771,7.443,56.635,7.443,56.635s-1.771,17.408-6.327,14.475c-6.84-2.062-13.891-21.588-27.247-50.019
			c-57.252-100.272-134.516-106.802-141.935-108.099c-7.419-1.298-62.01-7.817-75.384-35.157c0,0-10.572-17.072-17.364-23.121
			c-6.718-5.74-14.288-25.386-11.435-27.254c4.132-1.443,28.346-4.662,10.075-27.151C329.127,38.358,330.766,29.199,335.342,29.714z
			"/>
		<path fill="#606060" d="M351.108,119.904c-6.621,1.809-24.908-12.471-47.129-59.21c-17.218-37.914,31.362-30.981,31.362-30.981
			s-4.765,0.991-4.541,6.059c0.236,5.329,1.436,4.039,1.69,6.955c0.011,0.127-1.144-1.124-4.305-1.316
			c-3.161-0.192-7.152,1.151-9.703,2.689c-2.552,1.54-10.582,5.938-5.44,13.616c5.142,7.678,4.492,11.344,9.324,11.952
			c6.116,0.768-4.069-2.534,4.112,16.56c6.301,12.483,10.58,12.916,10.767,13.752C345.471,108.558,352.945,119.402,351.108,119.904z
			"/>
	</g>
	<text transform="matrix(1.0205 0 0 1 280.8555 563.7744)" fill="#333333" font-family="'Pacifico-Regular'" font-size="196.635">WC</text>
</g>
</svg>
